<?xml version="1.0" standalone="no"?>
<!DOCTYPE svg PUBLIC "-//W3C//DTD SVG 20010904//EN"
 "http://www.w3.org/TR/2001/REC-SVG-20010904/DTD/svg10.dtd">
<svg version="1.0" xmlns="http://www.w3.org/2000/svg"
 width="256.000000pt" height="256.000000pt" viewBox="0 0 256.000000 256.000000"
 preserveAspectRatio="xMidYMid meet">

<g transform="translate(0.000000,256.000000) scale(0.100000,-0.100000)"
fill="#000000" stroke="none">
<path d="M1262 2528 c-8 -8 -12 -58 -12 -159 0 -156 6 -178 49 -164 28 8 33
48 29 194 -2 95 -6 124 -18 131 -20 13 -34 12 -48 -2z"/>
<path d="M1915 2129 c-115 -101 -134 -129 -97 -147 25 -14 38 -6 151 88 106
89 128 123 96 147 -11 7 -22 13 -27 13 -4 0 -59 -45 -123 -101z"/>
<path d="M490 2205 c-7 -8 -9 -25 -6 -37 6 -22 161 -159 208 -185 27 -15 58 0
58 27 0 22 -206 209 -231 210 -9 0 -22 -7 -29 -15z"/>
<path d="M1141 2085 c-132 -29 -255 -104 -342 -210 -121 -147 -174 -326 -149
-505 20 -150 67 -245 185 -380 71 -82 126 -185 145 -270 19 -88 20 -90 45 -90
39 0 47 29 31 111 -22 102 -78 206 -161 299 -90 99 -138 189 -160 299 -57 279
99 557 366 653 54 19 84 22 189 22 139 0 196 -16 295 -79 68 -43 163 -147 202
-221 70 -131 82 -317 31 -455 -26 -71 -99 -181 -145 -220 -63 -54 -125 -163
-146 -256 l-13 -57 -263 -66 c-266 -66 -290 -76 -275 -114 3 -9 16 -18 28 -21
11 -3 147 27 301 67 l280 73 13 65 c18 94 60 176 128 250 83 91 108 126 144
198 81 164 79 387 -4 557 -66 133 -196 261 -317 313 -115 50 -280 64 -408 37z"/>
<path d="M192 1579 c-18 -7 -23 -15 -20 -36 l3 -28 162 -3 c153 -2 163 -1 173
18 8 16 6 24 -10 40 -18 18 -32 20 -152 19 -73 0 -143 -4 -156 -10z"/>
<path d="M2060 1570 c-16 -16 -18 -25 -10 -40 10 -19 22 -20 175 -20 153 0
165 1 175 20 8 15 6 24 -10 40 -18 18 -33 20 -165 20 -132 0 -147 -2 -165 -20z"/>
<path d="M1081 1251 c-8 -14 -3 -39 19 -100 32 -86 54 -197 67 -326 8 -77 9
-80 35 -83 22 -3 29 2 34 24 11 43 -4 213 -25 294 -37 136 -37 130 7 83 44
-48 63 -52 91 -24 11 11 31 27 44 36 l24 15 -24 -82 c-13 -46 -29 -129 -35
-185 -14 -121 -6 -156 33 -161 31 -4 39 15 39 89 0 73 27 209 60 302 36 101
36 113 9 128 -28 14 -83 4 -138 -27 -40 -22 -46 -23 -62 -8 -21 19 -101 44
-140 44 -17 0 -32 -7 -38 -19z"/>
<path d="M466 904 c-71 -59 -126 -113 -126 -123 0 -22 19 -41 41 -41 23 0 242
186 253 215 10 26 -6 55 -30 55 -7 0 -69 -48 -138 -106z"/>
<path d="M1910 989 c-7 -11 -9 -26 -7 -34 3 -7 62 -60 130 -119 90 -76 133
-106 151 -106 30 0 43 22 30 49 -13 27 -258 231 -277 231 -9 0 -21 -9 -27 -21z"/>
<path d="M1265 482 c-143 -37 -266 -71 -272 -75 -18 -11 -16 -42 2 -57 12 -10
61 -1 263 49 136 34 264 66 284 72 66 17 73 80 9 78 -14 0 -143 -31 -286 -67z"/>
<path d="M1260 296 l-275 -71 0 -30 c0 -26 4 -30 31 -33 17 -2 149 27 295 63
246 62 289 77 289 106 0 14 -32 39 -48 38 -9 -1 -141 -33 -292 -73z"/>
<path d="M1387 133 c-57 -39 -123 -42 -192 -9 -63 31 -89 31 -93 -1 -7 -46 96
-103 184 -103 58 0 176 55 189 88 7 20 -13 52 -33 51 -9 0 -34 -12 -55 -26z"/>
</g>
</svg>
