<?xml version="1.0" standalone="no"?>
<!DOCTYPE svg PUBLIC "-//W3C//DTD SVG 20010904//EN"
 "http://www.w3.org/TR/2001/REC-SVG-20010904/DTD/svg10.dtd">
<svg version="1.0" xmlns="http://www.w3.org/2000/svg"
 width="348.000000pt" height="348.000000pt" viewBox="0 0 348.000000 348.000000"
 preserveAspectRatio="xMidYMid meet">

<g transform="translate(0.000000,348.000000) scale(0.100000,-0.100000)"
fill="#000000" stroke="none">
<path d="M1701 3331 l-35 -139 -74 -7 c-370 -35 -742 -236 -978 -529 -176
-217 -294 -503 -319 -768 l-7 -73 -131 -34 c-73 -19 -136 -36 -141 -39 -5 -3
48 -20 118 -38 69 -17 132 -34 140 -37 8 -3 17 -40 24 -99 82 -670 595 -1181
1274 -1271 l93 -12 34 -132 c19 -73 38 -133 41 -133 3 0 21 60 40 134 l34 134
74 7 c371 35 741 235 978 529 175 217 292 498 319 765 5 46 12 74 21 78 7 3
71 20 140 37 70 18 123 35 118 38 -5 3 -68 20 -141 39 l-131 34 -7 73 c-25
265 -143 551 -319 768 -237 294 -607 494 -978 529 l-74 7 -35 139 c-18 76 -36
139 -39 139 -3 0 -21 -63 -39 -139z m174 -371 c189 -22 391 -97 558 -207 92
-61 258 -227 318 -318 95 -143 159 -293 195 -460 24 -110 24 -360 0 -470 -55
-254 -161 -450 -341 -630 -239 -240 -526 -359 -865 -359 -339 0 -625 118 -866
359 -240 239 -358 525 -358 865 0 322 109 601 328 837 265 284 647 426 1031
383z"/>
<path d="M1631 2260 l-115 -518 104 -514 c57 -282 106 -516 109 -520 3 -4 57
226 120 512 l114 518 -103 514 c-57 282 -106 516 -109 520 -4 4 -58 -226 -120
-512z m185 -201 c35 -172 64 -314 64 -316 0 -1 -61 -3 -135 -3 -101 0 -135 3
-135 13 -1 21 134 627 138 622 2 -2 33 -144 68 -316z"/>
<path d="M734 1740 l41 -150 31 0 30 0 18 98 c24 129 30 137 45 61 32 -164 30
-159 61 -159 19 0 30 6 34 18 16 53 76 271 76 276 0 3 -13 6 -30 6 -23 0 -31
-5 -35 -22 -3 -13 -13 -59 -23 -102 -10 -44 -21 -75 -24 -70 -3 5 -13 51 -23
102 l-17 92 -34 0 c-19 0 -34 -1 -34 -2 0 -2 -9 -47 -19 -101 -18 -92 -31
-132 -31 -94 0 8 -9 56 -21 106 l-21 91 -32 0 -33 0 41 -150z"/>
<path d="M2560 1740 l0 -150 115 0 115 0 0 25 c0 24 -2 24 -82 27 l-83 3 -3
38 -3 37 75 0 c74 0 76 1 76 25 0 24 -2 25 -75 25 l-75 0 0 35 0 35 80 0 c79
0 80 0 80 25 l0 25 -110 0 -110 0 0 -150z"/>
</g>
</svg>
